<svg width="248" height="210" viewBox="0 0 248 210" fill="black" xmlns="http://www.w3.org/2000/svg">
<rect x="0.5" y="0.5" width="247" height="209" stroke="white"/>
<path d="M189.413 21H59.5865C49.3639 21 41 29.35 41 39.5556V169.444C41 179.65 49.3639 188 59.5865 188H189.413C199.636 188 208 179.65 208 169.444V39.5556C208 34.6343 206.042 29.9146 202.556 26.4348C199.07 22.955 194.343 21 189.413 21ZM174.637 150.703C174.358 150.796 173.987 150.889 173.708 150.889H152.705C151.796 150.904 150.902 150.647 150.14 150.151C149.378 149.655 148.783 148.943 148.43 148.106L125.569 94.8511C125.383 94.2944 124.825 94.0161 124.361 94.2017C124.212 94.2575 124.077 94.3443 123.965 94.4563C123.853 94.5683 123.766 94.7029 123.71 94.8511L109.491 128.715C109.213 129.364 109.491 130.014 110.142 130.292C110.328 130.385 110.421 130.385 110.607 130.385H126.219C127.149 130.385 128.078 130.942 128.45 131.869L135.327 147.085C135.977 148.477 135.234 150.147 133.84 150.796C133.282 150.796 132.91 150.889 132.539 150.889H75.6639C74.2699 150.889 73.0618 149.683 73.0618 148.291C73.0618 147.92 73.1547 147.642 73.2476 147.271L109.491 61.1728C110.235 59.3172 112.093 58.1111 114.045 58.1111H134.955C136.999 58.1111 138.765 59.3172 139.509 61.1728L175.938 147.271C176.589 148.569 176.031 150.147 174.637 150.703Z" fill="white" fill-opacity="0.5"/>
</svg>
