<svg width="248" height="210" viewBox="0 0 248 210" fill="black" xmlns="http://www.w3.org/2000/svg">
<rect x="0.5" y="0.5" width="247" height="209" stroke="white"/>
<path d="M40 45.2946C40 38.9673 42.1993 32.8992 46.1141 28.4251C50.029 23.951 55.3386 21.4375 60.875 21.4375H186.125C191.661 21.4375 196.971 23.951 200.886 28.4251C204.801 32.8992 207 38.9673 207 45.2946V164.58C207 170.908 204.801 176.976 200.886 181.45C196.971 185.924 191.661 188.438 186.125 188.438H60.875C55.3386 188.438 50.029 185.924 46.1141 181.45C42.1993 176.976 40 170.908 40 164.58V45.2946ZM139.156 110.902H107.844C106.46 110.902 105.132 111.53 104.154 112.649C103.175 113.767 102.625 115.284 102.625 116.866C102.625 118.448 103.175 119.965 104.154 121.083C105.132 122.202 106.46 122.83 107.844 122.83H139.156C140.54 122.83 141.868 122.202 142.846 121.083C143.825 119.965 144.375 118.448 144.375 116.866C144.375 115.284 143.825 113.767 142.846 112.649C141.868 111.53 140.54 110.902 139.156 110.902ZM72.8364 106.679C72.3512 107.234 71.9663 107.892 71.7037 108.616C71.4411 109.341 71.3059 110.118 71.3059 110.902C71.3059 111.686 71.4411 112.463 71.7037 113.187C71.9663 113.912 72.3512 114.57 72.8364 115.125C73.8163 116.244 75.1454 116.874 76.5312 116.874C77.2175 116.874 77.8969 116.719 78.5309 116.419C79.1649 116.119 79.7409 115.679 80.2261 115.125L101.101 91.2674C101.587 90.7133 101.973 90.0552 102.236 89.3306C102.499 88.606 102.634 87.8292 102.634 87.0446C102.634 86.2601 102.499 85.4833 102.236 84.7587C101.973 84.0341 101.587 83.376 101.101 82.8219L80.2261 58.9648C79.7409 58.4103 79.1649 57.9704 78.5309 57.6703C77.8969 57.3701 77.2175 57.2157 76.5312 57.2157C75.845 57.2157 75.1656 57.3701 74.5316 57.6703C73.8976 57.9704 73.3216 58.4103 72.8364 58.9648C72.3512 59.5193 71.9663 60.1776 71.7037 60.9022C71.4411 61.6267 71.3059 62.4033 71.3059 63.1875C71.3059 63.9717 71.4411 64.7483 71.7037 65.4728C71.9663 66.1974 72.3512 66.8557 72.8364 67.4102L90.0269 87.0446L72.8364 106.679Z" fill="white" fill-opacity="0.5"/>
</svg>
