<svg width="248" height="210" viewBox="0 0 248 210" fill="black" xmlns="http://www.w3.org/2000/svg">
<rect x="0.5" y="0.5" width="247" height="209" stroke="white"/>
<g clip-path="url(#clip0_25_632)">
<path d="M61 21H98.8538V28.5011H76.8287V36.0022H98.8538V43.5033H61V21ZM106.416 21H144.284V27.5269H122.259V28.8281H144.284V43.8303H106.416V36.9833H128.441V35.6751H106.416V21ZM151.861 21H189.7V27.5269H167.675V28.8281H189.7V43.8303H151.861V36.9833H173.886V35.6751H151.861V21Z" fill="white" fill-opacity="0.5"/>
<path fill-rule="evenodd" clip-rule="evenodd" d="M124.417 188.178L59.9916 174.762L41 54H208L189.018 174.748L124.417 188.178ZM78.5472 108.665L80.3192 123.472H148.761L146.47 142.677L124.444 147.144H124.426L102.437 142.691L101.027 130.883H81.2006L83.9654 154.137L124.417 162.557L164.933 154.137L169.868 112.638L170.351 108.665L173.913 78.6812H74.9938L76.7937 93.4955H152.278L150.478 108.665H78.5472Z" fill="white" fill-opacity="0.5"/>
</g>
<defs>
<clipPath id="clip0_25_632">
<rect width="167" height="167" fill="white" transform="translate(41 21)"/>
</clipPath>
</defs>
</svg>
