<svg width="248" height="210" viewBox="0 0 248 210" fill="black" xmlns="http://www.w3.org/2000/svg">
<rect x="0.5" y="0.5" width="247" height="209" stroke="white"/>
<path d="M124.5 77.6722H82.7531H124.5ZM124.5 77.6722V22H82.7531C71.6795 22 61.0594 24.9327 53.2292 30.153C45.399 35.3733 41 42.4535 41 49.8361C41 57.2187 45.399 64.2989 53.2292 69.5192C61.0594 74.7395 71.6795 77.6722 82.7531 77.6722M124.5 77.6722V133.336H82.7531M124.5 77.6722H166.247H124.5ZM82.7531 77.6722C71.6812 77.6722 61.0627 80.6045 53.2336 85.824C45.4046 91.0435 41.0063 98.1227 41.0063 105.504C41.0063 112.886 45.4046 119.965 53.2336 125.184C61.0627 130.404 71.6812 133.336 82.7531 133.336M82.7531 133.336C74.4969 133.336 66.4261 134.968 59.5611 138.026C52.6961 141.084 47.3453 145.43 44.1853 150.515C41.0252 155.6 40.1977 161.196 41.8075 166.595C43.4173 171.993 47.3921 176.953 53.2292 180.845C59.0664 184.738 66.5038 187.389 74.6011 188.464C82.6983 189.539 91.0918 188.989 98.7203 186.884C106.349 184.779 112.87 181.213 117.458 176.637C122.047 172.061 124.498 166.681 124.5 161.176M166.247 77.6722C155.175 77.6722 144.556 80.6045 136.727 85.824C128.898 91.0435 124.5 98.1227 124.5 105.504C124.5 112.886 128.898 119.965 136.727 125.184C144.556 130.404 155.175 133.336 166.247 133.336C177.319 133.336 187.937 130.404 195.766 125.184C203.595 119.965 207.994 112.886 207.994 105.504C207.994 98.1227 203.595 91.0435 195.766 85.824C187.937 80.6045 177.319 77.6722 166.247 77.6722ZM166.247 77.6722C177.32 77.6722 187.941 74.7395 195.771 69.5192C203.601 64.2989 208 57.2187 208 49.8361C208 42.4535 203.601 35.3733 195.771 30.153C187.941 24.9327 177.32 22 166.247 22" fill="white" fill-opacity="0.5"/>
</svg>
