<svg width="248" height="210" viewBox="0 0 248 210" fill="black" xmlns="http://www.w3.org/2000/svg">
<rect x="0.5" y="0.5" width="247" height="209" stroke="white"/>
<path d="M155.175 31.429C137.781 27.9473 119.692 27.9473 102.298 31.429C92.2515 26.1215 84.5817 23.6822 79.0037 22.6526C76.6229 22.1897 74.1869 21.9717 71.7465 22.0029C70.6361 22.0289 69.5309 22.1438 68.4452 22.3462L68.3029 22.3707L68.246 22.3952H68.2033L70.1528 28.2911L68.2033 22.4074C67.2036 22.6508 66.2779 23.0798 65.4912 23.6642C64.7046 24.2487 64.076 24.9745 63.6498 25.7905C59.4517 33.8892 58.6518 42.993 61.3873 51.5437C54.3028 58.9394 50.4421 68.2355 50.4731 77.8239C50.4731 96.8599 56.9903 109.657 68.1037 117.882C75.8874 123.643 85.3359 126.707 94.8129 128.46C93.3215 132.233 92.7593 136.232 93.1622 140.203V147.533C87.3707 148.575 83.358 148.244 80.4978 147.435C76.9261 146.417 74.1798 144.37 71.5473 141.428C70.1711 139.843 68.8888 138.198 67.7053 136.501L66.8942 135.361C65.87 133.894 64.8072 132.447 63.7067 131.022C61.0031 127.577 56.9903 123.263 50.5015 121.792L43.6143 120.235L40 132.1L46.8872 133.657C48.0256 133.902 49.5055 134.822 51.9387 137.898C52.8753 139.113 53.7768 140.347 54.6424 141.6L55.61 142.948C56.9476 144.811 58.4844 146.871 60.2631 148.881C63.8632 152.926 68.7725 157.008 76.0581 159.079C81.0385 160.501 86.7019 160.844 93.1622 159.986V182.871C93.1622 184.497 93.9118 186.056 95.2461 187.205C96.5804 188.354 98.3901 189 100.277 189H157.196C159.083 189 160.893 188.354 162.227 187.205C163.561 186.056 164.311 184.497 164.311 182.871V139.198C164.311 135.336 164.112 131.794 162.845 128.497C172.279 126.781 181.657 123.716 189.398 117.955C200.497 109.669 207 96.7496 207 77.6033V77.591C206.964 68.0811 203.102 58.876 196.072 51.5437C198.804 42.9968 198.004 33.8979 193.809 25.8028C193.386 24.9857 192.76 24.2584 191.976 23.6718C191.192 23.0853 190.268 22.6537 189.27 22.4074L187.32 28.2911C189.27 22.4074 189.256 22.4074 189.241 22.4074L189.213 22.3952L189.156 22.3707L189.028 22.3462C188.676 22.2674 188.32 22.206 187.961 22.1623C187.216 22.0686 186.465 22.0154 185.712 22.0029C183.272 21.9719 180.836 22.19 178.455 22.6526C172.891 23.6822 165.222 26.1215 155.175 31.429Z" fill="white" fill-opacity="0.5"/>
</svg>
