<svg width="35" height="44" viewBox="0 0 35 44" fill="none" xmlns="http://www.w3.org/2000/svg">
<path d="M23.6075 2.47256C20.0422 1.55957 16.3344 1.55957 12.7692 2.47256C10.71 1.08077 9.13792 0.441128 7.99458 0.171128C7.5066 0.0497578 7.00728 -0.0074269 6.50708 0.00077125C6.27948 0.0075692 6.05295 0.0376991 5.83042 0.0907712L5.80125 0.0971997L5.78958 0.103628H5.78083L6.18042 1.6497L5.78083 0.106843C5.57593 0.170657 5.38618 0.283148 5.22494 0.43641C5.0637 0.589673 4.93487 0.779988 4.8475 0.993985C3.98701 3.11769 3.82307 5.50497 4.38375 7.7472C2.93165 9.68656 2.14032 12.1243 2.14667 14.6386C2.14667 19.6304 3.4825 22.9861 5.76042 25.1429C7.35583 26.6536 9.2925 27.4572 11.235 27.9168C10.9293 28.9062 10.8141 29.9549 10.8967 30.9961V32.9183C9.70958 33.1915 8.88708 33.1047 8.30083 32.8926C7.56875 32.6258 7.00583 32.089 6.46625 31.3176C6.18418 30.9017 5.92135 30.4705 5.67875 30.0254L5.5125 29.7265C5.30257 29.3418 5.08474 28.9624 4.85917 28.5886C4.305 27.6854 3.4825 26.554 2.1525 26.1683L0.740833 25.7601L0 28.8715L1.41167 29.2797C1.645 29.344 1.94833 29.5851 2.44708 30.3918C2.63905 30.7103 2.82383 31.034 3.00125 31.3626L3.19958 31.7161C3.47375 32.2047 3.78875 32.7447 4.15333 33.2718C4.89125 34.3326 5.8975 35.4029 7.39083 35.9461C8.41167 36.319 9.5725 36.409 10.8967 36.184V42.1851C10.8967 42.6113 11.0503 43.0201 11.3238 43.3215C11.5973 43.6229 11.9682 43.7922 12.355 43.7922H24.0217C24.4084 43.7922 24.7794 43.6229 25.0529 43.3215C25.3264 43.0201 25.48 42.6113 25.48 42.1851V30.7326C25.48 29.7201 25.4392 28.7911 25.1796 27.9265C27.1133 27.4765 29.0354 26.6729 30.6221 25.1622C32.8971 22.9893 34.23 19.6015 34.23 14.5808V14.5776C34.2227 12.0838 33.431 9.66994 31.99 7.7472C32.55 5.50597 32.3861 3.11996 31.5262 0.9972C31.4395 0.782949 31.3113 0.592219 31.1506 0.438404C30.9898 0.284589 30.8005 0.171419 30.5958 0.106843L30.1962 1.6497C30.5958 0.106843 30.5929 0.106843 30.59 0.106843L30.5842 0.103628L30.5725 0.0971997L30.5462 0.0907712C30.4742 0.0701293 30.4012 0.0540318 30.3275 0.042557C30.1748 0.0179903 30.0209 0.00403414 29.8667 0.00077125C29.3665 -0.00736646 28.8672 0.0498175 28.3792 0.171128C27.2388 0.441128 25.6667 1.08077 23.6075 2.47256Z" fill="white"/>
</svg>
