<svg width="248" height="210" viewBox="0 0 248 210" fill="black" xmlns="http://www.w3.org/2000/svg">
<rect x="0.5" y="0.5" width="247" height="209" stroke="white"/>
<mask id="mask0_25_528" style="mask-type:luminance" maskUnits="userSpaceOnUse" x="41" y="21" width="167" height="167">
<path d="M41 21H208V188H41V21Z" fill="white"/>
</mask>
<g mask="url(#mask0_25_528)">
<path d="M60.2979 21H70.3364V28.4385H79.5214V21H89.56V43.5172H79.5214V35.9813H70.3364V43.5172H60.3071L60.2979 21ZM102.753 28.4663H93.9205V21H121.633V28.4663H112.792V43.5172H102.753V28.4663ZM126.031 21H136.496L142.935 28.9116L149.365 21H159.83V43.5172H149.838V32.356L142.935 40.365H142.759L135.847 32.363V43.5172H126.031V21ZM164.821 21H174.869V36.0787H188.971V43.5241H164.821V21Z" fill="white" fill-opacity="0.5"/>
<path fill-rule="evenodd" clip-rule="evenodd" d="M59.9823 174.584L41 53.8224H208L189.008 174.57L124.407 188L59.9823 174.584ZM98.3645 108.48L96.5646 93.311H172.132L173.895 78.5037H74.9938L80.3192 123.294H148.761L146.47 142.499L124.444 146.967H124.426L102.437 142.513L101.027 130.705H81.1913L83.9561 153.96L124.407 162.379L164.923 153.96L169.859 112.46L170.341 108.487H98.3645V108.48Z" fill="white" fill-opacity="0.5"/>
</g>
</svg>
