<svg width="248" height="210" viewBox="0 0 248 210" fill="black" xmlns="http://www.w3.org/2000/svg">
<rect x="0.5" y="0.5" width="247" height="209" stroke="white"/>
<path d="M123.5 186.695C121.003 186.695 118.468 186.108 116.268 184.999L93.2686 173.094C89.8391 171.398 91.5166 170.811 92.6349 170.485C97.2199 169.082 98.1518 168.788 103.035 166.342C103.557 166.081 104.228 166.179 104.75 166.473L122.419 175.638C123.053 175.964 123.947 175.964 124.544 175.638L193.394 140.868C194.028 140.542 194.438 139.89 194.438 139.237V69.6974C194.438 69.0125 194.028 68.3928 193.357 68.034L124.544 33.2967C123.91 32.9705 123.053 32.9705 122.419 33.2967L53.6434 68.0666C52.9724 68.3928 52.5623 69.0451 52.5623 69.7301V139.237C52.5623 139.89 52.9724 140.542 53.6434 140.836L72.5054 150.36C82.7565 154.828 89.019 149.577 89.019 144.26V75.6338C89.019 74.6553 89.9137 73.9051 91.032 73.9051H99.7547C100.836 73.9051 101.768 74.6553 101.768 75.6338V144.293C101.768 156.231 94.3123 163.08 81.3773 163.08C77.3887 163.08 74.2574 163.08 65.5346 159.297L47.4927 150.197C43.0195 147.946 40.261 143.738 40.261 139.205V69.6974C40.261 65.1963 43.0195 60.956 47.4927 58.7055L116.268 23.9355C120.63 21.7828 126.408 21.7828 130.732 23.9355L199.582 58.7381C204.055 60.9887 206.814 65.1963 206.814 69.7301V139.237C206.814 143.738 204.055 147.946 199.582 150.229L130.732 184.999C128.532 186.108 126.035 186.695 123.5 186.695ZM179.08 118.167C179.08 105.152 169.015 101.695 147.879 99.2486C126.482 96.7697 124.32 95.4976 124.32 91.1269C124.32 87.5064 126.147 82.6791 141.989 82.6791C156.117 82.6791 161.336 85.3537 163.498 93.7037C163.684 94.4865 164.505 95.0736 165.436 95.0736H174.383C174.942 95.0736 175.464 94.8779 175.837 94.5191C176.209 94.1603 176.396 93.6711 176.359 93.1818C174.979 78.7976 164.057 72.1111 141.989 72.1111C122.344 72.1111 110.64 79.3521 110.64 91.5183C110.64 104.696 122.307 108.349 141.132 109.98C163.684 111.904 165.436 114.807 165.436 118.688C165.436 125.408 159.248 128.278 144.748 128.278C126.519 128.278 122.531 124.266 121.189 116.34C121.04 115.492 120.22 114.872 119.213 114.872H110.304C109.186 114.872 108.328 115.655 108.328 116.601C108.328 126.745 114.628 138.846 144.785 138.846C166.555 138.813 179.08 131.279 179.08 118.167Z" fill="white" fill-opacity="0.5"/>
</svg>
