<svg width="248" height="210" viewBox="0 0 248 210" fill="black" xmlns="http://www.w3.org/2000/svg">
<rect x="0.5" y="0.5" width="247" height="209" stroke="white"/>
<path d="M201.949 103.247C201.94 98.4576 200.187 93.8053 196.964 90.0164C193.741 86.2276 189.229 83.5153 184.133 82.3029L207 21H93.682L116.61 82.4977C111.661 83.8096 107.312 86.5447 104.216 90.2931C101.119 94.0416 99.4428 98.6014 99.437 103.289C99.4461 106.745 100.363 110.15 102.11 113.219C103.858 116.288 106.387 118.934 109.485 120.936C107.044 124.065 104.265 126.965 101.19 129.592C95.5324 134.491 88.9123 138.378 81.6744 141.052C75.2918 137.135 72.5291 130.225 75.0239 124.032C80.4535 122.499 85.0999 119.249 88.1225 114.87C91.1451 110.492 92.3441 105.275 91.5025 100.162C90.661 95.0499 87.8344 90.3803 83.5344 86.9985C79.2344 83.6167 73.7451 81.7462 68.0597 81.7254C61.7437 81.7327 55.6888 84.0172 51.2227 88.0779C46.7566 92.1386 44.244 97.644 44.2359 103.387C44.2359 109.287 46.8915 114.701 51.1466 118.57C50.7792 119.245 50.4042 119.927 50.0292 120.65C46.4706 127.323 42.4298 134.866 40.8839 143.327C37.7997 160.25 42.8507 173.833 55.0343 181.522C61.6284 185.75 69.5033 188.014 77.5724 188C91.5544 188 105.751 181.619 119.473 175.426C129.261 171.029 139.363 166.436 149.304 164.209C152.977 163.388 156.804 162.908 160.845 162.372C169.033 161.308 177.49 160.201 185.089 156.179C189.429 153.918 193.173 150.821 196.057 147.106C198.942 143.391 200.898 139.147 201.788 134.671C203.12 127.755 201.788 120.796 198.39 114.701C200.671 111.361 201.949 107.457 201.949 103.247ZM191.579 103.247C191.579 109.962 185.572 115.425 178.186 115.425C175.405 115.417 172.695 114.625 170.432 113.156C168.168 111.687 166.462 109.615 165.55 107.226C164.638 104.837 164.565 102.25 165.341 99.8219C166.118 97.3937 167.705 95.2449 169.883 93.6728L169.937 93.6241C170.365 93.3318 170.84 93.0396 171.314 92.7543C171.314 92.7543 171.375 92.7543 171.375 92.7056C171.59 92.6082 171.796 92.4621 172.01 92.3577C172.064 92.3577 172.118 92.3159 172.171 92.3159C172.385 92.2185 172.653 92.1211 172.914 92.0237C173.181 91.9263 173.449 91.8358 173.664 91.7384C173.717 91.7384 173.763 91.6897 173.817 91.6897C174.031 91.641 174.245 91.5436 174.459 91.4948C174.513 91.4948 174.612 91.4461 174.674 91.4461C174.934 91.3974 175.148 91.3487 175.416 91.307H175.47L176.266 91.1539C176.319 91.1539 176.419 91.1539 176.48 91.1052C176.694 91.1052 176.901 91.0565 177.115 91.0565H177.383C177.651 91.0565 177.919 91.0078 178.232 91.0078H178.921C179.135 91.0078 179.304 91.0078 179.51 91.0565H179.618C180.038 91.1052 180.467 91.1539 180.896 91.2513C183.915 91.8395 186.621 93.3499 188.565 95.5312C190.509 97.7125 191.573 100.44 191.579 103.247ZM108.521 30.6721H192.168L172.967 82.1637C172.171 82.3029 171.375 82.5464 170.579 82.79L150.375 45.3194L130.11 82.5464C129.314 82.3099 128.457 82.1637 127.608 82.0176L108.521 30.6721ZM146.541 99.0377C145.563 94.5745 143.049 90.5098 139.363 87.4312L150.368 67.2242L161.48 87.8696C158.189 90.8616 155.794 94.6887 154.837 99.0377H146.541ZM119.901 91.3974C120.161 91.3487 120.376 91.3 120.644 91.2583H120.797C121.019 91.2026 121.225 91.2026 121.439 91.1539H121.654C121.868 91.1539 122.029 91.1052 122.235 91.1052H124.309C124.524 91.1052 124.684 91.1539 124.845 91.1539C124.952 91.1539 124.998 91.1539 125.113 91.2026C125.319 91.2513 125.48 91.2513 125.694 91.3C125.748 91.3 125.802 91.3 125.909 91.3487L126.651 91.4879H126.705C126.919 91.5436 127.133 91.5923 127.34 91.6897C127.393 91.6897 127.447 91.7384 127.554 91.7384C127.715 91.7871 127.929 91.8358 128.09 91.9263C128.143 91.9263 128.197 91.975 128.243 91.975C128.457 92.0724 128.672 92.1211 128.886 92.2185H128.939C129.185 92.3029 129.417 92.4176 129.628 92.5595H129.682C129.896 92.6569 130.11 92.7961 130.325 92.8935C130.378 92.8935 130.378 92.9422 130.424 92.9422C130.638 93.0396 130.807 93.1857 131.013 93.2831L131.067 93.3318C131.702 93.7633 132.291 94.2503 132.873 94.7305L132.927 94.7792C135.296 97.0489 136.612 100.062 136.6 103.192C136.483 106.352 135.019 109.347 132.519 111.545C130.019 113.742 126.677 114.971 123.2 114.971C119.722 114.971 116.38 113.742 113.88 111.545C111.38 109.347 109.917 106.352 109.799 103.192C109.791 100.482 110.781 97.848 112.612 95.7101C114.444 93.5722 117.01 92.0538 119.901 91.3974ZM67.5699 91.0565C74.9627 91.0565 80.9703 96.5257 80.9703 103.241C80.9703 109.955 74.9627 115.425 67.5776 115.425C60.1924 115.425 54.1695 109.962 54.1695 103.247C54.1695 96.5327 60.1848 91.0565 67.5699 91.0565ZM191.265 132.98C190.661 136.074 189.313 139.008 187.318 141.573C185.323 144.139 182.73 146.272 179.725 147.823C173.924 150.87 166.799 151.837 159.299 152.805C155.082 153.296 150.893 153.972 146.748 154.83C135.689 157.3 125.059 162.136 114.743 166.777C101.549 172.719 89.1055 178.328 77.5724 178.328C71.6583 178.361 65.8856 176.685 61.0878 173.541C49.3864 166.193 49.968 152.415 51.3532 144.872C52.6313 137.809 56.1899 131.192 59.5955 124.853C59.8098 124.47 59.9705 124.129 60.1848 123.74C61.348 124.129 62.5725 124.422 63.8506 124.617C61.8302 134.866 67.5699 145.45 78.7433 150.675L80.7637 151.643L82.9371 150.919C92.2432 147.92 100.86 143.035 108.468 136.508C112.668 132.947 116.381 128.938 119.526 124.568C120.751 124.756 121.975 124.804 123.2 124.804C128.464 124.793 133.576 123.199 137.74 120.27C141.904 117.342 144.886 113.243 146.22 108.612H155.151C156.476 113.25 159.458 117.356 163.627 120.286C167.796 123.217 172.917 124.806 178.186 124.804C182.595 124.804 186.681 123.691 190.202 121.812C191.579 125.431 192.008 129.209 191.265 132.98Z" fill="white" fill-opacity="0.5"/>
</svg>
