<svg width="48" height="45" viewBox="0 0 48 45" fill="none" xmlns="http://www.w3.org/2000/svg">
<path d="M9.8501 5C9.84944 6.32608 9.32201 7.59759 8.38386 8.5348C7.44571 9.47201 6.17368 9.99816 4.8476 9.9975C3.52152 9.99684 2.25001 9.46941 1.3128 8.53126C0.375583 7.59311 -0.150565 6.32108 -0.149902 4.995C-0.149239 3.66892 0.378181 2.39741 1.31633 1.4602C2.25448 0.522983 3.52652 -0.00316486 4.8526 -0.00250182C6.17868 -0.00183877 7.45019 0.525581 8.3874 1.46373C9.32461 2.40188 9.85076 3.67392 9.8501 5ZM10.0001 13.7H9.8139e-05V45H10.0001V13.7ZM25.8001 13.7H15.8501V45H25.7001V28.575C25.7001 19.425 37.6251 18.575 37.6251 28.575V45H47.5001V25.175C47.5001 9.75 29.8501 10.325 25.7001 17.9L25.8001 13.7Z" fill="white"/>
</svg>
