<svg width="587" height="245" viewBox="0 0 587 245" fill="none" xmlns="http://www.w3.org/2000/svg">
<path d="M229.961 9.2678C193.685 9.2678 193.672 -11.5847 113.403 9.2678C33.1341 30.1203 -56.3236 253.746 103.265 233.402C283.55 210.419 375.658 209.704 415.394 233.402C447.182 252.36 504.471 244.402 529.647 233.402C554.823 222.402 595.719 247.522 584.932 204.116C574.146 160.71 556.852 177.785 550.495 146.188C544.137 114.591 540.135 133.023 508.11 109.325C476.085 85.6273 494.004 87.0187 468.375 85.6273C442.745 84.2359 415.394 64.5626 415.394 64.5626C415.394 64.5626 394.201 54.903 365.062 19.8001C335.923 -15.3028 266.236 9.2678 229.961 9.2678Z" fill="url(#paint0_linear_8_115)" fill-opacity="0.25"/>
<path d="M0.373443 63.3101H22.303L73.8672 189.257H75.6453L127.209 63.3101H149.139V215.039H131.951V99.7607H130.469L83.0539 215.039H66.4586L19.0432 99.7607H17.5615V215.039H0.373443V63.3101ZM187.887 217.706C180.676 217.706 174.132 216.348 168.254 213.632C162.377 210.866 157.709 206.89 154.252 201.704C150.794 196.468 149.066 190.146 149.066 182.737C149.066 176.218 150.35 170.933 152.918 166.883C155.487 162.784 158.919 159.573 163.216 157.252C167.513 154.93 172.255 153.202 177.441 152.066C182.676 150.88 187.936 149.942 193.221 149.25C200.136 148.361 205.742 147.695 210.039 147.25C214.385 146.756 217.546 145.941 219.522 144.805C221.547 143.669 222.559 141.694 222.559 138.878V138.286C222.559 130.976 220.559 125.296 216.558 121.246C212.607 117.196 206.606 115.171 198.555 115.171C190.208 115.171 183.664 116.998 178.923 120.653C174.181 124.308 170.847 128.21 168.921 132.359L152.326 126.432C155.289 119.517 159.24 114.133 164.179 110.281C169.168 106.379 174.601 103.663 180.478 102.131C186.405 100.551 192.233 99.7607 197.963 99.7607C201.618 99.7607 205.816 100.205 210.557 101.094C215.348 101.934 219.966 103.687 224.412 106.354C228.906 109.021 232.635 113.047 235.599 118.43C238.562 123.814 240.044 131.025 240.044 140.064V215.039H222.559V199.629H221.67C220.485 202.099 218.509 204.741 215.744 207.556C212.978 210.372 209.298 212.767 204.705 214.743C200.111 216.718 194.505 217.706 187.887 217.706ZM190.554 202C197.469 202 203.297 200.642 208.039 197.925C212.829 195.209 216.435 191.702 218.855 187.405C221.325 183.108 222.559 178.589 222.559 173.847V157.844C221.819 158.733 220.189 159.548 217.67 160.289C215.2 160.981 212.336 161.598 209.076 162.141C205.865 162.635 202.729 163.08 199.667 163.475C196.654 163.821 194.209 164.117 192.332 164.364C187.788 164.957 183.541 165.92 179.589 167.253C175.687 168.538 172.526 170.489 170.106 173.106C167.736 175.675 166.55 179.181 166.55 183.627C166.55 189.702 168.797 194.295 173.292 197.407C177.836 200.469 183.59 202 190.554 202ZM242.749 215.039V101.242H259.64V118.43H260.826C262.9 112.8 266.654 108.231 272.087 104.724C277.52 101.218 283.645 99.4643 290.46 99.4643C291.745 99.4643 293.35 99.489 295.276 99.5384C297.202 99.5878 298.659 99.6619 299.647 99.7607V117.541C299.054 117.393 297.696 117.171 295.572 116.875C293.498 116.529 291.3 116.356 288.979 116.356C283.447 116.356 278.508 117.517 274.161 119.838C269.864 122.11 266.456 125.271 263.938 129.321C261.468 133.322 260.233 137.89 260.233 143.027V215.039H242.749ZM333.931 217.41C323.263 217.41 314.076 214.891 306.371 209.853C298.666 204.815 292.739 197.876 288.591 189.035C284.442 180.194 282.367 170.093 282.367 158.733C282.367 147.176 284.491 136.977 288.739 128.136C293.036 119.245 299.012 112.306 306.668 107.317C314.373 102.28 323.362 99.7607 333.635 99.7607C341.636 99.7607 348.847 101.242 355.268 104.206C361.689 107.169 366.949 111.318 371.049 116.652C375.148 121.987 377.692 128.21 378.68 135.322H361.195C359.862 130.136 356.898 125.543 352.305 121.542C347.761 117.492 341.636 115.467 333.931 115.467C327.115 115.467 321.139 117.245 316.002 120.801C310.915 124.308 306.939 129.272 304.075 135.693C301.259 142.064 299.852 149.547 299.852 158.141C299.852 166.932 301.235 174.588 304 181.108C306.816 187.627 310.767 192.69 315.854 196.295C320.991 199.901 327.017 201.704 333.931 201.704C338.475 201.704 342.6 200.913 346.304 199.333C350.008 197.752 353.145 195.48 355.713 192.517C358.281 189.553 360.109 185.997 361.195 181.848H378.68C377.692 188.566 375.247 194.616 371.345 200C367.493 205.334 362.381 209.581 356.009 212.743C349.687 215.854 342.328 217.41 333.931 217.41ZM446.747 168.513V101.242H464.232V215.039H446.747V195.777H445.562C442.895 201.555 438.746 206.47 433.115 210.52C427.485 214.521 420.373 216.521 411.779 216.521C404.666 216.521 398.344 214.965 392.812 211.853C387.281 208.692 382.934 203.951 379.773 197.629C376.612 191.257 375.032 183.231 375.032 173.551V101.242H392.516V172.365C392.516 180.663 394.837 187.281 399.48 192.221C404.172 197.16 410.149 199.629 417.409 199.629C421.756 199.629 426.176 198.518 430.671 196.295C435.215 194.073 439.018 190.665 442.08 186.071C445.192 181.478 446.747 175.625 446.747 168.513ZM547.654 126.728L531.947 131.173C530.96 128.556 529.503 126.012 527.576 123.542C525.7 121.023 523.131 118.949 519.871 117.319C516.612 115.689 512.438 114.874 507.351 114.874C500.387 114.874 494.583 116.479 489.94 119.69C485.347 122.851 483.05 126.876 483.05 131.766C483.05 136.112 484.631 139.545 487.792 142.064C490.953 144.583 495.892 146.682 502.609 148.361L519.501 152.51C529.676 154.98 537.257 158.758 542.246 163.845C547.234 168.883 549.728 175.378 549.728 183.33C549.728 189.85 547.851 195.678 544.098 200.815C540.393 205.951 535.207 210.001 528.54 212.965C521.872 215.928 514.117 217.41 505.276 217.41C493.669 217.41 484.063 214.891 476.457 209.853C468.851 204.815 464.035 197.456 462.01 187.775L478.605 183.627C480.186 189.751 483.174 194.344 487.57 197.407C492.015 200.469 497.818 202 504.98 202C513.13 202 519.6 200.271 524.391 196.814C529.231 193.307 531.651 189.109 531.651 184.219C531.651 180.268 530.268 176.959 527.502 174.292C524.736 171.575 520.489 169.55 514.759 168.217L495.793 163.771C485.372 161.302 477.716 157.474 472.826 152.288C467.986 147.053 465.566 140.508 465.566 132.655C465.566 126.234 467.369 120.554 470.974 115.615C474.629 110.676 479.593 106.799 485.866 103.984C492.188 101.168 499.349 99.7607 507.351 99.7607C518.612 99.7607 527.453 102.23 533.874 107.169C540.344 112.108 544.937 118.628 547.654 126.728Z" fill="white"/>
<g style="mix-blend-mode:overlay">
<path d="M2.98123 58.0944H24.9108L76.475 184.041H78.2531L129.817 58.0944H151.747V209.823H134.559V94.545H133.077L85.6617 209.823H69.0664L21.651 94.545H20.1693V209.823H2.98123V58.0944ZM190.495 212.491C183.284 212.491 176.739 211.132 170.862 208.416C164.984 205.65 160.317 201.674 156.86 196.488C153.402 191.252 151.674 184.93 151.674 177.522C151.674 171.002 152.958 165.717 155.526 161.667C158.094 157.568 161.527 154.357 165.824 152.036C170.121 149.715 174.863 147.986 180.049 146.85C185.284 145.665 190.544 144.726 195.829 144.035C202.744 143.146 208.35 142.479 212.647 142.034C216.993 141.54 220.154 140.726 222.13 139.59C224.155 138.454 225.167 136.478 225.167 133.663V133.07C225.167 125.76 223.167 120.08 219.166 116.03C215.215 111.98 209.214 109.955 201.163 109.955C192.816 109.955 186.272 111.782 181.53 115.437C176.789 119.092 173.455 122.994 171.529 127.143L154.933 121.216C157.897 114.301 161.848 108.918 166.787 105.065C171.776 101.163 177.209 98.4468 183.086 96.9157C189.013 95.3352 194.841 94.545 200.571 94.545C204.225 94.545 208.424 94.9895 213.165 95.8785C217.956 96.7181 222.574 98.4715 227.019 101.139C231.514 103.806 235.243 107.831 238.206 113.215C241.17 118.598 242.652 125.809 242.652 134.848V209.823H225.167V194.414H224.278C223.093 196.883 221.117 199.525 218.351 202.341C215.585 205.156 211.906 207.552 207.312 209.527C202.719 211.503 197.113 212.491 190.495 212.491ZM193.162 196.784C200.077 196.784 205.905 195.426 210.646 192.71C215.437 189.993 219.043 186.486 221.463 182.189C223.932 177.892 225.167 173.373 225.167 168.631V152.629C224.426 153.518 222.797 154.333 220.278 155.074C217.808 155.765 214.943 156.382 211.684 156.926C208.473 157.42 205.337 157.864 202.275 158.259C199.262 158.605 196.817 158.901 194.94 159.148C190.396 159.741 186.148 160.704 182.197 162.038C178.295 163.322 175.134 165.273 172.714 167.891C170.343 170.459 169.158 173.966 169.158 178.411C169.158 184.486 171.405 189.079 175.9 192.191C180.444 195.253 186.198 196.784 193.162 196.784ZM245.357 209.823V96.0267H262.248V113.215H263.434C265.508 107.584 269.262 103.016 274.695 99.5087C280.128 96.002 286.252 94.2486 293.068 94.2486C294.352 94.2486 295.958 94.2733 297.884 94.3227C299.81 94.3721 301.267 94.4462 302.255 94.545V112.326C301.662 112.178 300.304 111.955 298.18 111.659C296.106 111.313 293.908 111.14 291.587 111.14C286.055 111.14 281.116 112.301 276.769 114.622C272.472 116.894 269.064 120.055 266.545 124.105C264.076 128.106 262.841 132.675 262.841 137.811V209.823H245.357ZM336.539 212.194C325.871 212.194 316.684 209.675 308.979 204.637C301.274 199.6 295.347 192.66 291.198 183.819C287.049 174.978 284.975 164.878 284.975 153.518C284.975 141.96 287.099 131.761 291.346 122.92C295.643 114.03 301.62 107.09 309.275 102.102C316.98 97.0639 325.97 94.545 336.243 94.545C344.244 94.545 351.455 96.0267 357.876 98.9901C364.297 101.954 369.557 106.102 373.657 111.437C377.756 116.771 380.3 122.994 381.287 130.106H363.803C362.469 124.92 359.506 120.327 354.913 116.326C350.369 112.276 344.244 110.251 336.539 110.251C329.723 110.251 323.747 112.029 318.61 115.586C313.523 119.092 309.547 124.056 306.682 130.477C303.867 136.848 302.459 144.331 302.459 152.925C302.459 161.717 303.842 169.372 306.608 175.892C309.424 182.411 313.375 187.474 318.462 191.08C323.599 194.685 329.624 196.488 336.539 196.488C341.083 196.488 345.207 195.698 348.912 194.117C352.616 192.537 355.752 190.265 358.321 187.301C360.889 184.338 362.716 180.782 363.803 176.633H381.287C380.3 183.35 377.855 189.4 373.953 194.784C370.1 200.118 364.988 204.366 358.617 207.527C352.295 210.638 344.936 212.194 336.539 212.194ZM449.355 163.297V96.0267H466.84V209.823H449.355V190.561H448.17C445.503 196.34 441.354 201.254 435.723 205.304C430.093 209.305 422.98 211.305 414.386 211.305C407.274 211.305 400.952 209.749 395.42 206.638C389.888 203.477 385.542 198.735 382.381 192.413C379.22 186.042 377.639 178.016 377.639 168.335V96.0267H395.124V167.15C395.124 175.447 397.445 182.066 402.088 187.005C406.78 191.944 412.756 194.414 420.017 194.414C424.363 194.414 428.784 193.302 433.278 191.08C437.822 188.857 441.625 185.449 444.688 180.856C447.799 176.262 449.355 170.409 449.355 163.297ZM550.262 121.512L534.555 125.958C533.567 123.34 532.11 120.796 530.184 118.327C528.307 115.808 525.739 113.733 522.479 112.103C519.219 110.474 515.046 109.659 509.959 109.659C502.994 109.659 497.191 111.264 492.548 114.474C487.955 117.635 485.658 121.661 485.658 126.55C485.658 130.897 487.239 134.329 490.4 136.848C493.561 139.367 498.5 141.466 505.217 143.146L522.109 147.295C532.283 149.764 539.865 153.542 544.853 158.63C549.842 163.668 552.336 170.163 552.336 178.114C552.336 184.634 550.459 190.462 546.705 195.599C543.001 200.736 537.815 204.786 531.147 207.749C524.48 210.713 516.725 212.194 507.884 212.194C496.277 212.194 486.671 209.675 479.065 204.637C471.458 199.6 466.643 192.24 464.618 182.56L481.213 178.411C482.794 184.535 485.782 189.129 490.177 192.191C494.623 195.253 500.426 196.784 507.588 196.784C515.737 196.784 522.208 195.056 526.998 191.598C531.839 188.091 534.259 183.893 534.259 179.004C534.259 175.052 532.876 171.743 530.11 169.076C527.344 166.359 523.097 164.334 517.367 163.001L498.401 158.556C487.98 156.086 480.324 152.258 475.434 147.072C470.594 141.837 468.174 135.293 468.174 127.439C468.174 121.019 469.977 115.339 473.582 110.399C477.237 105.46 482.201 101.583 488.474 98.7679C494.796 95.9526 501.957 94.545 509.959 94.545C521.22 94.545 530.061 97.0145 536.482 101.954C542.952 106.893 547.545 113.412 550.262 121.512Z" fill="white"/>
</g>
<path d="M161.667 92.196V89.8623L175.98 68.4958H161.511V65.6435H179.818V67.9772L165.505 89.3437H179.974V92.196H161.667ZM217.307 92.196H213.936L223.686 65.6435H227.005L236.755 92.196H233.384L225.449 69.8442H225.242L217.307 92.196ZM218.552 81.8239H232.139V84.6763H218.552V81.8239ZM288.645 73.9411C288.36 73.0682 287.984 72.2859 287.517 71.5945C287.059 70.8943 286.51 70.2979 285.87 69.8053C285.239 69.3126 284.522 68.9366 283.718 68.6773C282.914 68.418 282.033 68.2883 281.073 68.2883C279.5 68.2883 278.07 68.6946 276.782 69.5071C275.494 70.3195 274.47 71.5167 273.709 73.0984C272.948 74.6802 272.568 76.6206 272.568 78.9198C272.568 81.2189 272.953 83.1593 273.722 84.7411C274.491 86.3228 275.533 87.52 276.846 88.3324C278.16 89.1449 279.638 89.5512 281.281 89.5512C282.802 89.5512 284.142 89.227 285.3 88.5788C286.467 87.9219 287.374 86.997 288.022 85.8042C288.679 84.6028 289.008 83.1896 289.008 81.5646L289.993 81.7721H282.007V78.9198H292.119V81.7721C292.119 83.9589 291.653 85.8604 290.719 87.4767C289.794 89.0931 288.515 90.3464 286.881 91.2366C285.257 92.1183 283.39 92.5591 281.281 92.5591C278.93 92.5591 276.864 92.0059 275.083 90.8995C273.311 89.7932 271.928 88.2201 270.934 86.1802C269.949 84.1404 269.456 81.7202 269.456 78.9198C269.456 76.8194 269.737 74.9308 270.299 73.254C270.87 71.5685 271.673 70.1337 272.711 68.9496C273.748 67.7654 274.975 66.8579 276.393 66.2269C277.81 65.5959 279.37 65.2804 281.073 65.2804C282.473 65.2804 283.778 65.4922 284.989 65.9157C286.207 66.3306 287.292 66.9227 288.243 67.6919C289.202 68.4526 290.002 69.3644 290.641 70.4276C291.281 71.4821 291.722 72.6533 291.964 73.9411H288.645ZM350.881 78.9198C350.881 81.7202 350.375 84.1404 349.364 86.1802C348.353 88.2201 346.965 89.7932 345.202 90.8995C343.439 92.0059 341.425 92.5591 339.16 92.5591C336.896 92.5591 334.882 92.0059 333.119 90.8995C331.355 89.7932 329.968 88.2201 328.957 86.1802C327.946 84.1404 327.44 81.7202 327.44 78.9198C327.44 76.1193 327.946 73.6991 328.957 71.6593C329.968 69.6194 331.355 68.0463 333.119 66.94C334.882 65.8336 336.896 65.2804 339.16 65.2804C341.425 65.2804 343.439 65.8336 345.202 66.94C346.965 68.0463 348.353 69.6194 349.364 71.6593C350.375 73.6991 350.881 76.1193 350.881 78.9198ZM347.769 78.9198C347.769 76.6206 347.385 74.6802 346.615 73.0984C345.855 71.5167 344.822 70.3195 343.517 69.5071C342.22 68.6946 340.768 68.2883 339.16 68.2883C337.553 68.2883 336.096 68.6946 334.791 69.5071C333.495 70.3195 332.462 71.5167 331.692 73.0984C330.932 74.6802 330.552 76.6206 330.552 78.9198C330.552 81.2189 330.932 83.1593 331.692 84.7411C332.462 86.3228 333.495 87.52 334.791 88.3324C336.096 89.1449 337.553 89.5512 339.16 89.5512C340.768 89.5512 342.22 89.1449 343.517 88.3324C344.822 87.52 345.855 86.3228 346.615 84.7411C347.385 83.1593 347.769 81.2189 347.769 78.9198ZM387.138 92.196V65.6435H396.11C398.184 65.6435 399.887 65.9978 401.218 66.7066C402.549 67.4067 403.535 68.3705 404.174 69.5978C404.814 70.8252 405.134 72.2211 405.134 73.7856C405.134 75.35 404.814 76.7373 404.174 77.9474C403.535 79.1574 402.554 80.1082 401.231 80.7997C399.909 81.4825 398.219 81.8239 396.162 81.8239H388.901V78.9198H396.058C397.476 78.9198 398.617 78.7123 399.481 78.2974C400.354 77.8825 400.985 77.2948 401.374 76.5342C401.771 75.7649 401.97 74.8487 401.97 73.7856C401.97 72.7224 401.771 71.7933 401.374 70.9981C400.976 70.2029 400.341 69.5892 399.468 69.157C398.595 68.7162 397.441 68.4958 396.006 68.4958H390.353V92.196H387.138ZM399.636 80.2681L406.171 92.196H402.437L396.006 80.2681H399.636ZM455.863 72.2816C455.708 70.9678 455.077 69.9479 453.97 69.2218C452.864 68.4958 451.507 68.1328 449.899 68.1328C448.724 68.1328 447.695 68.3229 446.814 68.7032C445.941 69.0835 445.258 69.6065 444.765 70.272C444.281 70.9376 444.039 71.6939 444.039 72.5409C444.039 73.2497 444.208 73.859 444.545 74.369C444.89 74.8703 445.331 75.2895 445.867 75.6266C446.403 75.9551 446.965 76.2273 447.553 76.4434C448.14 76.6509 448.681 76.8194 449.173 76.9491L451.87 77.6751C452.561 77.8566 453.331 78.1073 454.178 78.4271C455.034 78.7469 455.85 79.1834 456.628 79.7366C457.415 80.2811 458.063 80.9812 458.573 81.8369C459.083 82.6926 459.338 83.7428 459.338 84.9874C459.338 86.4222 458.962 87.7188 458.21 88.877C457.467 90.0352 456.378 90.9557 454.943 91.6385C453.517 92.3214 451.784 92.6628 449.744 92.6628C447.842 92.6628 446.196 92.3559 444.804 91.7423C443.421 91.1286 442.332 90.2729 441.537 89.1752C440.75 88.0775 440.305 86.8026 440.201 85.3505H443.52C443.607 86.3531 443.944 87.1829 444.532 87.8398C445.128 88.488 445.88 88.972 446.788 89.2919C447.704 89.603 448.689 89.7586 449.744 89.7586C450.971 89.7586 452.073 89.5598 453.05 89.1622C454.027 88.756 454.8 88.1941 455.371 87.4767C455.941 86.7507 456.226 85.9036 456.226 84.9356C456.226 84.0539 455.98 83.3365 455.487 82.7834C454.995 82.2302 454.346 81.7807 453.543 81.435C452.739 81.0892 451.87 80.7867 450.937 80.5274L447.669 79.5939C445.595 78.9975 443.953 78.1462 442.743 77.0398C441.532 75.9334 440.927 74.4857 440.927 72.6965C440.927 71.2098 441.329 69.9133 442.133 68.8069C442.946 67.6919 444.035 66.8276 445.4 66.2139C446.775 65.5916 448.309 65.2804 450.003 65.2804C451.714 65.2804 453.236 65.5873 454.567 66.201C455.898 66.806 456.952 67.6358 457.73 68.6903C458.517 69.7448 458.932 70.9419 458.975 72.2816H455.863ZM495.475 92.196V65.6435H498.691V78.816H499.002L510.93 65.6435H515.13L503.98 77.6232L515.13 92.196H511.241L502.01 79.8532L498.691 83.5872V92.196H495.475ZM553.358 65.6435V92.196H550.143V65.6435H553.358Z" fill="white" fill-opacity="0.79"/>
<path opacity="0.19" d="M584.412 92.5785C573.98 93.8824 139.775 209.931 156.725 86.0588C173.676 -37.8139 117.608 170.814 103.265 213.843L53.716 89.9706C39.8075 93.0131 32.8529 103.01 25.0294 95.1863" stroke="#FFFEFE" stroke-width="2.60784"/>
<defs>
<linearGradient id="paint0_linear_8_115" x1="304.069" y1="0" x2="304.069" y2="310.333" gradientUnits="userSpaceOnUse">
<stop stop-color="#5C7CFA"/>
<stop offset="0.796875" stop-color="#12141B"/>
</linearGradient>
</defs>
</svg>
