<svg width="248" height="210" viewBox="0 0 248 210" fill="black" xmlns="http://www.w3.org/2000/svg">
<rect x="0.5" y="0.5" width="247" height="209" stroke="white"/>
<path d="M163.348 21.001C160.695 20.9641 158.127 21.9446 156.167 23.743H156.16C156.04 23.8434 155.924 23.9484 155.812 24.0578L100.34 85.7245L67.9634 59.0321L65.1314 56.5839C64.1547 55.7677 62.9743 55.2359 61.7183 55.046C60.4622 54.8561 59.1785 55.0154 58.0061 55.5067C57.9782 55.5182 57.9504 55.5298 57.9226 55.5417L45.2794 60.7878C45.0973 60.8641 44.9185 60.9481 44.7436 61.0396C44.6328 61.1019 44.5237 61.1672 44.4165 61.2355C44.3273 61.2848 44.2391 61.3362 44.1521 61.3894C44.0385 61.4654 43.9271 61.5447 43.8181 61.6272C43.7475 61.6818 43.6779 61.7378 43.6094 61.7951C43.505 61.8761 43.4029 61.9601 43.3032 62.0469C43.2178 62.1218 43.1343 62.1988 43.0527 62.2777C42.9766 62.3576 42.9023 62.4392 42.83 62.5226C42.7513 62.6092 42.6747 62.6978 42.6004 62.7884C42.5164 62.8886 42.4352 62.9913 42.3569 63.0961C42.2996 63.1742 42.2439 63.2535 42.1899 63.334C42.1122 63.4483 42.038 63.5649 41.9672 63.6837C41.9192 63.7644 41.8728 63.846 41.828 63.9285C41.7692 64.0435 41.7135 64.1602 41.661 64.2783C41.6121 64.382 41.5657 64.487 41.5219 64.593C41.4824 64.6947 41.4453 64.7974 41.4105 64.9008C41.3707 65.0095 41.3336 65.1191 41.2992 65.2296C41.2608 65.3568 41.226 65.4851 41.1948 65.6143C41.1697 65.7071 41.1465 65.8003 41.1252 65.8941C41.1033 66.0195 41.0847 66.1454 41.0696 66.2718C41.0527 66.388 41.0388 66.5046 41.0278 66.6215C41.0106 66.8146 41.0013 67.0083 41 67.2021V141.809C41.0081 143.183 41.4182 144.523 42.1792 145.664C42.9402 146.805 44.0184 147.695 45.2794 148.224L57.9226 153.568C59.1111 154.065 60.4135 154.221 61.685 154.018C62.9564 153.816 64.1471 153.263 65.1245 152.421L67.9634 149.972L100.34 123.287L155.819 184.947C155.981 185.104 156.148 185.255 156.32 185.401C156.449 185.521 156.582 185.638 156.717 185.751C156.849 185.852 156.983 185.95 157.12 186.045C157.264 186.151 157.41 186.254 157.559 186.353C157.707 186.445 157.858 186.534 158.011 186.619C158.16 186.706 158.31 186.79 158.463 186.87C158.619 186.947 158.777 187.019 158.936 187.087C159.097 187.161 159.259 187.231 159.423 187.297C159.591 187.36 159.761 187.418 159.931 187.472C160.083 187.522 160.237 187.569 160.391 187.612C160.575 187.664 160.761 187.71 160.947 187.752C161.104 187.788 161.262 187.821 161.42 187.85C161.594 187.877 161.768 187.901 161.942 187.92C162.116 187.943 162.29 187.961 162.464 187.976C162.633 187.987 162.803 187.994 162.972 187.997C163.151 188.001 163.329 188.001 163.508 187.997C163.689 187.99 163.87 187.978 164.051 187.962C164.206 187.949 164.362 187.932 164.517 187.913C164.72 187.884 164.922 187.849 165.122 187.808C165.262 187.783 165.401 187.755 165.54 187.724C165.727 187.678 165.912 187.626 166.096 187.57C166.255 187.527 166.413 187.48 166.57 187.43C166.734 187.369 166.896 187.303 167.057 187.234C167.268 187.155 167.477 187.068 167.683 186.975L202.085 170.348C203.347 169.736 204.473 168.875 205.397 167.816C205.618 167.565 205.827 167.304 206.023 167.033C206.033 167.017 206.042 167 206.051 166.984C206.251 166.702 206.437 166.41 206.608 166.11C206.764 165.836 206.908 165.556 207.039 165.27C207.06 165.231 207.081 165.191 207.102 165.151C207.204 164.903 207.297 164.651 207.38 164.396C207.416 164.31 207.451 164.224 207.484 164.137C207.563 163.89 207.633 163.641 207.693 163.389C207.715 163.303 207.736 163.216 207.756 163.13C207.803 162.898 207.843 162.665 207.874 162.43C207.895 162.314 207.913 162.197 207.93 162.081C207.95 161.871 207.964 161.661 207.972 161.451C207.986 161.265 207.995 161.078 207.999 160.891V48.1341V48.1131C208 48.0385 208 47.9639 207.999 47.8893C207.994 47.5386 207.97 47.1884 207.93 46.8401C207.717 45.0925 207.07 43.4269 206.048 41.9967C205.027 40.5665 203.664 39.4177 202.085 38.6561L167.683 22.0292C166.33 21.3803 164.854 21.032 163.355 21.008L163.348 21.001ZM166.25 68.9648V140.054L123.122 104.52L166.25 68.9648ZM61.8749 80.5343L83.4387 104.506L61.868 128.47L61.8749 80.5343Z" fill="white" fill-opacity="0.5"/>
</svg>
