<?xml version="1.0" standalone="no"?>
<!DOCTYPE svg PUBLIC "-//W3C//DTD SVG 20010904//EN"
 "http://www.w3.org/TR/2001/REC-SVG-20010904/DTD/svg10.dtd">
<svg version="1.0" xmlns="http://www.w3.org/2000/svg"
 width="417.000000pt" height="598.000000pt" viewBox="0 0 417.000000 598.000000"
 preserveAspectRatio="xMidYMid meet">
<metadata>
Created by potrace 1.16, written by Peter Selinger 2001-2019
</metadata>
<g transform="translate(0.000000,598.000000) scale(0.100000,-0.100000)"
fill="#000000" stroke="none">
<path d="M120 3724 l0 -1476 280 -279 c154 -153 284 -279 290 -279 7 0 10 471
10 1470 l0 1470 1375 0 1375 0 0 -1048 0 -1047 -685 -685 c-377 -377 -689
-686 -693 -688 -4 -1 -127 118 -274 265 l-267 268 -3 903 c-2 496 -1 902 2
902 3 0 124 -119 270 -265 146 -146 269 -265 275 -265 5 0 123 114 262 253
138 139 257 258 265 264 11 9 13 -103 10 -678 -2 -554 0 -689 10 -689 7 0 138
125 291 278 l277 277 0 848 0 847 -283 0 -282 0 -275 -275 -275 -275 -275 275
-275 275 -283 0 -282 0 0 -1480 0 -1479 556 -557 557 -556 973 973 974 974 0
1475 0 1475 -1950 3 -1950 2 0 -1476z"/>
</g>
</svg>
