<svg xmlns="http://www.w3.org/2000/svg" width="512" height="512" viewBox="0 0 512 512" version="1.1"><path d="M 114.384 98.750 C 114.698 101.362, 115.420 111.150, 115.988 120.500 C 116.556 129.850, 117.263 139.786, 117.561 142.579 L 118.101 147.658 227.660 147.193 L 337.219 146.727 336.668 149.613 C 336.365 151.201, 335.333 164.054, 334.375 178.175 L 332.634 203.851 324.567 204.382 C 320.130 204.675, 273.362 205.359, 220.637 205.903 C 167.913 206.447, 124.515 207.151, 124.199 207.468 C 123.695 207.971, 127.220 246.123, 128.705 256.250 L 129.256 260 228.565 260 L 327.874 260 327.404 263.250 C 327.145 265.038, 325.184 282.627, 323.045 302.339 C 320.906 322.050, 319.008 338.290, 318.828 338.428 C 318.112 338.974, 257.402 355.004, 256 355.017 C 254.672 355.029, 193.929 339.034, 193.216 338.485 C 193.060 338.364, 192.023 328.193, 190.912 315.883 C 189.801 303.572, 188.706 292.938, 188.478 292.250 C 188.159 291.290, 181.569 291, 160.031 291 C 133.993 291, 132.002 291.124, 132.023 292.750 C 132.115 299.868, 140.017 381.395, 140.670 381.966 C 141.127 382.366, 167.248 389.792, 198.717 398.469 L 255.934 414.245 313.217 398.458 C 344.723 389.775, 370.862 382.360, 371.304 381.981 C 372.150 381.256, 373.442 367.450, 387.957 204 C 392.915 148.175, 397.230 100.588, 397.547 98.250 L 398.123 94 255.967 94 L 113.812 94 114.384 98.750" stroke="none" fill="#fbfbfb" fill-rule="evenodd"/><path d="M 31.977 1.750 C 31.941 4.597, 72.281 460.466, 72.606 460.868 C 73.084 461.461, 254.351 511.996, 256 511.996 C 257.675 511.996, 438.915 461.469, 439.369 460.876 C 439.671 460.482, 480.118 3.421, 480.043 1.250 C 480.009 0.254, 434.510 0, 256 0 C 43.342 0, 31.999 0.089, 31.977 1.750 M 114.384 98.750 C 114.698 101.362, 115.420 111.150, 115.988 120.500 C 116.556 129.850, 117.263 139.786, 117.561 142.579 L 118.101 147.658 227.660 147.193 L 337.219 146.727 336.668 149.613 C 336.365 151.201, 335.333 164.054, 334.375 178.175 L 332.634 203.851 324.567 204.382 C 320.130 204.675, 273.362 205.359, 220.637 205.903 C 167.913 206.447, 124.515 207.151, 124.199 207.468 C 123.695 207.971, 127.220 246.123, 128.705 256.250 L 129.256 260 228.565 260 L 327.874 260 327.404 263.250 C 327.145 265.038, 325.184 282.627, 323.045 302.339 C 320.906 322.050, 319.008 338.290, 318.828 338.428 C 318.112 338.974, 257.402 355.004, 256 355.017 C 254.672 355.029, 193.929 339.034, 193.216 338.485 C 193.060 338.364, 192.023 328.193, 190.912 315.883 C 189.801 303.572, 188.706 292.938, 188.478 292.250 C 188.159 291.290, 181.569 291, 160.031 291 C 133.993 291, 132.002 291.124, 132.023 292.750 C 132.115 299.868, 140.017 381.395, 140.670 381.966 C 141.127 382.366, 167.248 389.792, 198.717 398.469 L 255.934 414.245 313.217 398.458 C 344.723 389.775, 370.862 382.360, 371.304 381.981 C 372.150 381.256, 373.442 367.450, 387.957 204 C 392.915 148.175, 397.230 100.588, 397.547 98.250 L 398.123 94 255.967 94 L 113.812 94 114.384 98.750" stroke="none" fill="#2494f4" fill-rule="evenodd"/></svg>