<svg xmlns="http://www.w3.org/2000/svg" width="512" height="512" viewBox="0 0 512 512" version="1.1"><path d="" stroke="none" fill="#ff4c0c" fill-rule="evenodd"/><path d="M 41.500 0.939 C 38.530 2.156, 34.399 6.622, 32.904 10.232 C 31.757 13, 33.757 41.253, 48.349 228.456 C 63.982 429.013, 65.259 443.802, 67.305 447.983 C 68.534 450.494, 70.851 453.238, 72.570 454.220 C 77.509 457.042, 251.982 512, 256 512 C 260.018 512, 434.491 457.042, 439.430 454.220 C 441.149 453.238, 443.466 450.494, 444.695 447.983 C 446.741 443.802, 448.019 428.999, 463.671 228.208 L 480.452 12.916 478.184 8.708 C 476.937 6.394, 474.698 3.600, 473.208 2.500 C 470.522 0.516, 468.779 0.498, 257 0.310 C 139.575 0.205, 42.600 0.488, 41.500 0.939 M 114 96.825 C 114 100.141, 125.665 250.799, 126.576 259.250 L 127.196 265 228.143 265 L 329.091 265 328.562 268.250 C 328.272 270.038, 327.071 285.675, 325.894 303 C 324.717 320.325, 323.471 334.796, 323.127 335.157 C 322.782 335.519, 307.934 339.745, 290.131 344.549 L 257.763 353.284 226.631 344.985 C 209.509 340.420, 194.488 336.317, 193.250 335.867 C 191.012 335.054, 191 334.938, 191 313.525 L 191 292 159.902 292 L 128.804 292 129.426 297.750 C 129.769 300.912, 131.376 320.775, 132.997 341.889 C 134.618 363.002, 136.069 380.398, 136.222 380.546 C 136.375 380.694, 163.387 389.347, 196.250 399.776 L 256 418.736 315.750 399.776 C 348.612 389.347, 375.622 380.697, 375.772 380.553 C 376.095 380.240, 388.976 216.725, 388.990 212.750 L 389 210 287.059 210 C 230.991 210, 184.889 209.629, 184.608 209.175 C 184.041 208.257, 178 154.722, 178 150.609 L 178 148 285.939 148 L 393.877 148 394.421 143.750 C 395.188 137.754, 398.006 101.165, 398.003 97.250 L 398 94 256 94 L 114 94 114 96.825" stroke="none" fill="#fc4c0c" fill-rule="evenodd"/></svg>