<svg xmlns="http://www.w3.org/2000/svg" width="512" height="512" viewBox="0 0 512 512" version="1.1"><path d="" stroke="none" fill="#080404" fill-rule="evenodd"/><path d="M 0 2.280 C 0 3.535, 9.450 108.483, 21 235.500 C 32.550 362.517, 42 467.175, 42 468.074 C 42 469.443, 59.371 473.181, 149 491.098 L 256 512.488 363 491.098 C 427.805 478.143, 469.991 469.273, 469.977 468.604 C 469.869 463.392, 511.362 11.084, 512.070 9.764 C 512.581 8.809, 513 6.221, 513 4.014 L 513 0 256.500 0 L 0 0 0 2.280 M 0.286 5.500 C 0.294 8.250, 0.488 9.256, 0.718 7.736 C 0.947 6.216, 0.941 3.966, 0.704 2.736 C 0.467 1.506, 0.279 2.750, 0.286 5.500 M 192 227.500 C 192 305.325, 191.845 369, 191.656 369 C 190.779 369, 161.630 362.964, 161.401 362.735 C 161.259 362.592, 160.423 354.381, 159.545 344.487 C 158.667 334.594, 157.714 325.038, 157.429 323.250 L 156.909 320 135.943 320 L 114.976 320 115.481 323.750 C 115.758 325.813, 117.381 343.250, 119.088 362.500 C 120.794 381.750, 122.260 397.569, 122.345 397.654 C 122.430 397.738, 146.575 402.609, 176 408.477 C 205.425 414.346, 230.512 419.388, 231.750 419.682 L 234 420.217 234 253.108 L 234 86 213 86 L 192 86 192 227.500 M 278 181.500 L 278 277 318.437 277 L 358.874 277 358.423 280.250 C 358.174 282.038, 356.377 301.263, 354.428 322.974 C 352.479 344.685, 350.750 362.583, 350.585 362.748 C 350.420 362.913, 334.021 366.294, 314.143 370.261 L 278 377.474 278 398.846 L 278 420.217 280.250 419.682 C 281.488 419.388, 306.575 414.346, 336 408.477 C 365.425 402.609, 389.575 397.738, 389.666 397.654 C 389.946 397.393, 404 240.571, 404 237.699 L 404 235 362 235 L 320 235 320 181.500 L 320 128 366.955 128 L 413.909 128 414.424 124.750 C 414.707 122.963, 415.412 115.875, 415.991 109 C 416.569 102.125, 417.310 94.138, 417.636 91.250 L 418.230 86 348.115 86 L 278 86 278 181.500" stroke="none" fill="#040404" fill-rule="evenodd"/></svg>